<?xml version="1.0" encoding="UTF-8"?>
<svg id="Layer_2" data-name="Layer 2" xmlns="http://www.w3.org/2000/svg" viewBox="0 0 53.83 62.53">
  <defs>
    <style>
      .cls-1 {
        fill: #414042;
        stroke-width: 0px;
      }

      .cls-2 {
        fill: #fff;
      }

      .cls-2, .cls-3, .cls-4, .cls-5 {
        stroke: #414042;
        stroke-miterlimit: 10;
        stroke-width: 2px;
      }

      .cls-3 {
        fill: #dcd3ea;
      }

      .cls-4 {
        fill: #baadc9;
      }

      .cls-5 {
        fill: none;
      }
    </style>
  </defs>
  <g id="Frame">
    <path class="cls-2" d="M52.83,45.71v15.82H8.91c-4.37,0-7.91-3.55-7.91-7.91s3.54-7.91,7.91-7.91h43.93Z"/>
    <rect class="cls-3" x="8.91" y="1" width="43.93" height="44.71"/>
    <path class="cls-4" d="M8.91,1v44.71c-4.37,0-7.91,3.54-7.91,7.91V8.91C1,4.54,4.54,1,8.91,1Z"/>
    <line class="cls-5" x1="52.83" y1="50" x2="17.74" y2="50"/>
    <line class="cls-5" x1="52.83" y1="54.37" x2="38.32" y2="54.37"/>
    <polygon class="cls-4" points="23.47 50 23.47 57.1 25.8 54.37 28 57.1 28 50 23.47 50"/>
    <g>
      <path class="cls-1" d="M13.89,32.46l7.19-19.56h3.52l7.13,19.56h-3.47l-1.63-4.88h-7.58l-1.7,4.88h-3.46ZM19.89,24.77h5.87l-2.94-8.56-2.94,8.56Z"/>
      <path class="cls-1" d="M37.77,32.71c-.81,0-1.56-.15-2.24-.46-.68-.31-1.23-.77-1.65-1.38-.42-.62-.62-1.38-.62-2.3,0-1.29.39-2.26,1.18-2.92.79-.66,1.9-1.11,3.33-1.35,1.43-.24,3.1-.38,5.02-.41v-.87c0-1.06-.26-1.78-.78-2.18-.52-.4-1.19-.6-1.99-.6-.87,0-1.6.21-2.18.64-.58.43-.87,1.11-.87,2.05h-2.98c0-1.18.25-2.13.76-2.84.51-.71,1.22-1.23,2.12-1.55.91-.32,1.95-.48,3.15-.48.8,0,1.56.07,2.27.22.71.15,1.33.4,1.87.76.54.36.96.86,1.26,1.5.3.63.46,1.45.46,2.43v9.49h-2.94l-.12-1.99c-.62.7-1.34,1.24-2.17,1.64-.83.4-1.79.6-2.87.6ZM38.72,30.47c.85,0,1.63-.21,2.32-.62.7-.42,1.27-.92,1.71-1.53v-2.57c-2.31,0-3.94.22-4.91.64-.97.42-1.45,1.09-1.45,2.02,0,.66.21,1.17.62,1.53.41.36.98.54,1.71.54Z"/>
    </g>
  </g>
</svg>